<svg width="1000" height="1000" viewBox="0 0 1000 1000" fill="none" xmlns="http://www.w3.org/2000/svg">
<g clip-path="url(#clip0_416_2)">
<rect width="1000" height="1000" rx="500" fill="#2B54BF"/>
<g filter="url(#filter0_d_416_2)">
<path d="M262.195 472.466C-2.34413 344.804 -203.493 545.034 -271 661.106V1085H1558V385C1440.55 468.627 1153.12 640.926 943.028 661.106C680.409 686.331 592.87 632.043 262.195 472.466Z" fill="#CF6B4B"/>
</g>
<g filter="url(#filter1_d_416_2)">
<path d="M676.719 618.502C1016.81 462.25 1200.47 740.312 1249.79 898.875L1174.75 1503.21L-479 1297.85L-373.823 450.89C-165.346 571.866 336.632 774.754 676.719 618.502Z" fill="#DB473D"/>
</g>
<path d="M563 737V263H635.555V737H563ZM595.247 535.211V464.789H837.769V535.211H595.247ZM595.247 333.423V263H868V333.423H595.247Z" fill="#F5F5F5"/>
<path d="M302.931 735C278.183 735 255.172 731.736 233.898 725.208C213.058 718.681 193.954 708.889 176.588 695.833C159.655 682.343 144.459 665.806 131 646.222L179.193 590.736C200.467 621.199 220.873 642.306 240.41 654.056C259.948 665.806 283.176 671.681 310.094 671.681C326.593 671.681 341.572 669.069 355.031 663.847C368.49 658.625 379.127 651.444 386.942 642.306C394.757 633.167 398.665 622.722 398.665 610.972C398.665 603.139 397.362 595.741 394.757 588.778C392.152 581.815 388.028 575.505 382.383 569.847C377.173 564.19 370.227 558.968 361.543 554.181C353.294 549.394 343.525 545.259 332.237 541.778C320.949 537.861 307.924 534.597 293.162 531.986C269.717 527.199 249.311 520.889 231.944 513.056C214.577 505.222 200.033 495.431 188.31 483.681C176.588 471.931 167.904 458.657 162.26 443.861C156.616 428.63 153.794 411.657 153.794 392.944C153.794 374.667 157.701 357.694 165.516 342.028C173.766 326.361 184.837 312.87 198.73 301.556C213.058 289.806 229.773 280.884 248.877 274.792C267.98 268.264 288.603 265 310.746 265C334.191 265 355.682 268.046 375.22 274.139C394.757 280.231 412.124 289.37 427.32 301.556C442.516 313.306 455.107 327.884 465.093 345.292L415.597 394.25C406.914 379.889 397.145 367.921 386.291 358.347C375.437 348.338 363.497 340.94 350.472 336.153C337.447 330.931 323.554 328.319 308.792 328.319C291.859 328.319 277.098 330.931 264.507 336.153C251.916 341.375 241.93 348.773 234.549 358.347C227.602 367.486 224.129 378.366 224.129 390.986C224.129 400.125 225.866 408.611 229.339 416.444C232.812 423.843 238.022 430.588 244.969 436.681C252.35 442.338 262.119 447.56 274.276 452.347C286.432 456.699 300.977 460.616 317.909 464.097C341.789 469.319 363.063 476.065 381.732 484.333C400.401 492.167 416.249 501.523 429.274 512.403C442.299 523.282 452.067 535.468 458.58 548.958C465.527 562.449 469 577.028 469 592.694C469 621.852 462.27 647.093 448.811 668.417C435.352 689.741 416.249 706.278 391.501 718.028C366.753 729.343 337.23 735 302.931 735Z" fill="#F5F5F5"/>
</g>
<defs>
<filter id="filter0_d_416_2" x="-291" y="363" width="1869" height="740" filterUnits="userSpaceOnUse" color-interpolation-filters="sRGB">
<feFlood flood-opacity="0" result="BackgroundImageFix"/>
<feColorMatrix in="SourceAlpha" type="matrix" values="0 0 0 0 0 0 0 0 0 0 0 0 0 0 0 0 0 0 127 0" result="hardAlpha"/>
<feOffset dy="-2"/>
<feGaussianBlur stdDeviation="10"/>
<feComposite in2="hardAlpha" operator="out"/>
<feColorMatrix type="matrix" values="0 0 0 0 0.0705882 0 0 0 0 0.0705882 0 0 0 0 0.0705882 0 0 0 0.1 0"/>
<feBlend mode="normal" in2="BackgroundImageFix" result="effect1_dropShadow_416_2"/>
<feBlend mode="normal" in="SourceGraphic" in2="effect1_dropShadow_416_2" result="shape"/>
</filter>
<filter id="filter1_d_416_2" x="-499" y="428.891" width="1768.79" height="1092.32" filterUnits="userSpaceOnUse" color-interpolation-filters="sRGB">
<feFlood flood-opacity="0" result="BackgroundImageFix"/>
<feColorMatrix in="SourceAlpha" type="matrix" values="0 0 0 0 0 0 0 0 0 0 0 0 0 0 0 0 0 0 127 0" result="hardAlpha"/>
<feOffset dy="-2"/>
<feGaussianBlur stdDeviation="10"/>
<feComposite in2="hardAlpha" operator="out"/>
<feColorMatrix type="matrix" values="0 0 0 0 0.0705882 0 0 0 0 0.0705882 0 0 0 0 0.0705882 0 0 0 0.1 0"/>
<feBlend mode="normal" in2="BackgroundImageFix" result="effect1_dropShadow_416_2"/>
<feBlend mode="normal" in="SourceGraphic" in2="effect1_dropShadow_416_2" result="shape"/>
</filter>
<clipPath id="clip0_416_2">
<rect width="1000" height="1000" rx="500" fill="white"/>
</clipPath>
</defs>
</svg>
